<?xml version="1.0" encoding="utf-8"?>
<!-- Generator: Adobe Illustrator 22.0.1, SVG Export Plug-In . SVG Version: 6.00 Build 0)  -->
<svg version="1.1" id="Layer_1" xmlns="http://www.w3.org/2000/svg" xmlns:xlink="http://www.w3.org/1999/xlink" x="0px" y="0px"
	 viewBox="0 0 1280 1024" style="enable-background:new 0 0 1280 1024;" xml:space="preserve">
<style type="text/css">
	.st0{fill:#FF0000;stroke:#000000;stroke-width:48;stroke-linecap:round;stroke-linejoin:round;stroke-miterlimit:10;}
	.st1{fill:#006837;}
	.st2{fill:#009245;}
</style>
<path class="st0" d="M1163.5,568.5c0.4,166.8-118.4,341.6-257.5,382.5c-15.9,4.7-23.9,5.2-231,6c-148.1,0.5-222.4,0.8-237-2.7
	C291.2,919,143.5,748.5,141.5,568.5c-1.8-159.9,102-301.8,221.2-353.3c33.8-14.6,119.7-16,290.3-18.2c155.6-2,234-2.8,264.7,8.6
	C1042.2,252,1163.1,394.7,1163.5,568.5z"/>
<image style="display:none;overflow:visible;" width="240" height="240" xlink:href="../tomato_1f345.png"  transform="matrix(4.2708 0 0 4.2708 139 -1)">
</image>
<g>
	<path class="st1" d="M661.8,400.4c-4.5-2.4-9.6-3.6-14.6-3.6c-5.1,0-10.1,1.2-14.6,3.6l-116.6,61.2l22.4-130
		c1.7-9.6-1.3-19.6-7.9-26.7l-96.2-103.6l128.9-8.3c11.2-0.7,21.2-7.4,26.2-17.4l58.2-117.7l58,117.7c5.1,10.4,15.5,17.1,27.1,17.5
		l127.8,4.3l-96.7,108c-6.4,7.2-9.2,16.7-7.6,26.2l22.2,130.2L661.8,400.4z"/>
	<path class="st2" d="M647.4,112.1l36.5,74.1c9,18.4,27.4,30.2,47.9,30.9l76.5,2.6l-2.3,2.5l-60.2,67.2
		c-11.3,12.7-16.2,29.5-13.3,46.3l14,82.2L673,379.2c-7.9-4.2-16.9-6.4-25.8-6.4c-8.9,0-17.8,2.2-25.7,6.3l-73.6,38.6l14.2-82.1
		c2.9-16.9-2.3-34.6-14-47.1L540,280l-53.9-58l78.5-5c19.7-1.3,37.4-13,46.1-30.7L647.4,112.1 M647.5,13c-2.6,0-5.3,1.4-6.6,4.1
		l-73.1,147.8c-1.2,2.4-3.5,3.9-6.2,4.1c-54.6,3.5-109.2,7-163.8,10.5c-6.2,0.4-9.2,7.9-5,12.5c40,43.1,80,86.1,120,129.2
		c1.6,1.7,2.3,4,1.9,6.3l-28.1,163.1c-0.8,4.8,3,8.7,7.3,8.7c1.1,0,2.3-0.3,3.4-0.9l146.4-76.8c1.1-0.6,2.3-0.8,3.4-0.8
		c1.2,0,2.4,0.3,3.5,0.9l146.3,77.1c1.1,0.6,2.3,0.9,3.5,0.9c4.3,0,8.1-3.9,7.3-8.7l-27.9-163.3c-0.4-2.2,0.3-4.5,1.8-6.2
		c40.1-44.8,80.3-89.7,120.4-134.5c4.2-4.7,1-12.1-5.3-12.4c-54.4-1.8-108.9-3.7-163.3-5.5c-2.7-0.1-5.2-1.7-6.4-4.1L654.1,17.1
		C652.8,14.3,650.1,13,647.5,13L647.5,13z"/>
</g>
</svg>
